<svg width="34" height="32" xmlns="http://www.w3.org/2000/svg">
 <!-- Generator: Sketch 58 (84663) - https://sketch.com -->

 <title>user</title>
 <desc>Created with Sketch.</desc>
 <g>
  <title>background</title>
  <rect fill="none" id="canvas_background" height="402" width="582" y="-1" x="-1"/>
 </g>
 <g>
  <title>Layer 1</title>
  <g fill-rule="evenodd" fill="none" id="Developer-Test">
   <g fill="#3F4342" id="06-Accops-User-Listing">
    <path fill="#f37147" id="user" d="m24.77238,9.75124c1.44244,-0.95125 2.39691,-2.58458 2.39691,-4.43819c0,-2.92948 -2.38357,-5.31305 -5.31336,-5.31305c-2.92937,0 -5.31294,2.38357 -5.31294,5.31305c0,1.85153 0.9528,3.48413 2.39295,4.43537c-1.35137,0.35783 -2.62824,0.96625 -3.77933,1.80839c-0.0916,0.06721 -0.16401,0.15109 -0.21695,0.24425c-0.94551,-0.8657 -2.20403,-1.39524 -3.58427,-1.39524c-2.92979,0 -5.31294,2.38357 -5.31294,5.31294c0,1.89394 0.99636,3.55822 2.49215,4.49936c-4.90104,1.25769 -8.5346,5.71265 -8.5346,11.00038c0,0.43139 0.35011,0.7815 0.7815,0.7815c0.43191,0 0.7815,-0.35011 0.7815,-0.7815c0,-5.39933 4.39307,-9.79198 9.79239,-9.79198c5.39923,0 9.79188,4.39265 9.79188,9.79198c0,0.43139 0.35011,0.7815 0.7815,0.7815c0.43149,0 0.7815,-0.35011 0.7815,-0.7815c0,-5.28773 -3.63314,-9.74269 -8.53419,-11.00038c2.48496,-1.56342 3.22979,-4.82008 1.69648,-7.2916c0.07253,-0.0248 0.14255,-0.06065 0.20726,-0.10826c1.6847,-1.2329 3.68201,-1.88456 5.77611,-1.88456c5.39974,0 9.79239,4.39265 9.79239,9.79229c0,0.43149 0.35001,0.7815 0.7815,0.7815c0.43139,0 0.7815,-0.35001 0.7815,-0.7815c0,-5.25345 -3.58635,-9.68445 -8.43894,-10.97475zm-13.41699,9.71789c-2.06816,0 -3.75036,-1.68231 -3.75036,-3.75037c0,-2.06774 1.6822,-3.74994 3.75036,-3.74994c2.06775,0 3.74995,1.6822 3.74995,3.74994c0,2.06806 -1.6822,3.75037 -3.74995,3.75037zm10.50054,-17.90613c2.06816,0 3.75036,1.68231 3.75036,3.75005c0,2.06764 -1.6822,3.74995 -3.75036,3.74995c-2.06774,0 -3.74995,-1.68231 -3.74995,-3.74995c0,-2.06774 1.68221,-3.75005 3.74995,-3.75005z"/>
   </g>
  </g>
 </g>
</svg>